<?xml version="1.0" standalone="no"?>
<!DOCTYPE svg PUBLIC "-//W3C//DTD SVG 20010904//EN"
 "http://www.w3.org/TR/2001/REC-SVG-20010904/DTD/svg10.dtd">
<svg version="1.0" xmlns="http://www.w3.org/2000/svg"
 width="400.000000pt" height="400.000000pt" viewBox="0 0 400.000000 400.000000"
 preserveAspectRatio="xMidYMid meet">
<metadata>
Created by potrace 1.11, written by Peter Selinger 2001-2013
</metadata>
<g transform="translate(0.000000,400.000000) scale(0.100000,-0.100000)"
fill="#000000" stroke="none">
<path d="M1430 2829 c-139 -16 -228 -52 -337 -138 -79 -62 -125 -125 -147
-203 -19 -65 -23 -179 -8 -233 18 -65 74 -147 124 -185 l47 -34 -32 -20 c-35
-21 -145 -112 -164 -136 -7 -8 -27 -43 -44 -77 -27 -53 -32 -76 -34 -148 -8
-230 93 -377 312 -457 49 -18 87 -22 247 -26 124 -3 186 -1 182 6 -8 14 19 34
41 30 16 -3 18 6 19 100 l1 102 -141 1 c-159 1 -174 2 -219 25 -130 67 -166
276 -73 421 32 49 57 56 211 59 176 3 165 3 164 12 -4 22 4 29 29 28 l27 -1 2
95 1 95 -127 1 c-115 0 -131 3 -171 25 -57 31 -88 86 -96 168 -11 121 26 210
98 232 33 10 114 18 196 19 24 0 41 4 37 9 -7 12 14 26 40 26 19 0 20 7 22
103 2 56 -1 102 -5 103 -28 4 -157 3 -202 -2z"/>
<path d="M1719 2830 c-1 -3 -1 -13 0 -22 2 -14 -5 -18 -27 -18 l-29 0 0 -810
0 -810 134 0 c116 0 134 2 129 15 -5 15 0 17 42 18 18 0 22 5 22 31 7 479 3
1596 -5 1597 -34 4 -265 3 -266 -1z"/>
<path d="M2070 2813 c0 -19 -5 -23 -30 -23 l-30 0 0 -810 1 -810 134 0 c127 0
135 1 135 19 0 15 5 19 24 15 14 -2 28 1 32 7 9 15 9 1607 0 1617 -4 4 -66 7
-137 7 -128 1 -129 1 -129 -22z"/>
<path d="M2432 2832 c-7 -2 -12 -12 -12 -23 0 -14 -7 -19 -28 -19 l-28 0 0
-100 0 -100 36 0 c168 -2 239 -20 298 -74 46 -41 63 -89 63 -176 -1 -98 -22
-159 -64 -181 -12 -7 -72 -14 -137 -15 -63 -2 -120 -3 -127 -4 -6 0 -13 -10
-15 -22 -2 -17 -10 -23 -28 -23 -25 0 -25 -1 -25 -83 0 -46 4 -86 9 -89 5 -3
72 -7 150 -8 155 -2 191 -11 245 -62 83 -80 108 -243 53 -353 -40 -82 -62 -90
-251 -90 -130 0 -152 -2 -148 -15 7 -17 -9 -30 -38 -30 -18 0 -20 -7 -20 -98
l-1 -99 186 4 c209 5 241 12 378 90 100 57 157 116 201 208 35 73 36 78 36
195 0 110 -2 125 -27 178 -35 73 -120 159 -191 192 -31 14 -62 25 -69 25 -7 1
2 9 20 18 98 53 171 173 177 289 10 236 -120 397 -365 448 -71 15 -251 26
-278 17z"/>
</g>
</svg>
